<svg version="1.1" id="Layer_1" xmlns="http://www.w3.org/2000/svg" x="0" y="0" viewBox="0 0 318 264" xml:space="preserve" enable-background="new 0 0 318 264"><style>.st1{fill-rule:evenodd;clip-rule:evenodd;fill:#fff}</style><g id="Page-1"><g id="home" transform="translate(-1266 -4920)"><g id="Group-34" transform="translate(1266 4920.085)"><g id="Group-3"><defs><filter id="Adobe_OpacityMaskFilter" filterUnits="userSpaceOnUse" x="0" y="0" width="317.4" height="264"><feColorMatrix values="1 0 0 0 0 0 1 0 0 0 0 0 1 0 0 0 0 0 1 0"/></filter></defs><mask maskUnits="userSpaceOnUse" x="0" y="0" width="317.4" height="264" id="mask-2_00000093871725355683111210000010831300329564881297_"><g filter="url(#Adobe_OpacityMaskFilter)"><path id="path-1_00000052088389103490515420000015177847781507693952_" class="st1" d="M0 0h317.4v264H0z"/></g></mask><path id="Fill-1" d="M166.2 211.8c-38.1 0-69-30.9-69-69.1 0-38.2 30.9-69.1 69-69.1s69 30.9 69 69.1c0 38.1-30.9 69.1-69 69.1m149.4-60.1c-3.5-.3-65.3-3.1-70.8-3.6-1.1-.1-1.7-1.8.4-2 10.6-1.4 43-3.1 43-3.1.5 0 .9-.4.9-.9v-.4c0-.7-.5-1.2-1.2-1.2l-38.2-1.2c-.5 0-.9-.3-1.1-.8-.1-.6.3-1.2.9-1.3l30.2-4.6c.5-.1.8-.5.8-1s-.5-.8-1-.9l-28.2-.4c-.3 0-.5-.2-.5-.5v-.4c0-.3.2-.5.4-.6l49.1-9.7c.5-.1 1-.6 1-1.2 0-.7-.6-1.2-1.2-1.2l-48.4 2.5c-.3 0-.6-.2-.6-.5l-.1-1.2c0-.2.1-.4.3-.5l53.4-23c.6-.2.9-.9.7-1.5v-.1c-.2-.6-.9-.9-1.5-.7l-56 17.1c-.6.2-1.2 0-1.5-.5-.4-.7-.1-1.5.5-1.8l56.8-28c.5-.3.8-.8.6-1.4l-.1-.5c-.2-.7-.9-1.1-1.6-.8l-57.7 21c-.5.2-1 .1-1.3-.3-.4-.5-.2-1.3.3-1.6l37.2-22.4c.7-.4.9-1.4.4-2.1-.4-.5-1.1-.7-1.7-.5-17.3 7.3-29.6 13.6-33.4 15.1-.3.1-.7.1-1 0-.1 0-.2-.1-.3-.2-.6-.3-.7-1-.3-1.5l34.6-36.4c.5-.6.7-1.4.3-2.1-.5-.9-1.7-1.1-2.5-.4 0 0-37.1 30-49 39.5-.5.4-1.4.5-2-.1-.5-.5-.4-1.3 0-1.8 9.8-12.4 23.7-31 26.8-35.4.6-.8.4-1.5-.2-2.1l-.1-.1c-.6-.5-1.3-.5-2 0-8.6 6.8-30.5 26.4-33.1 28.7-.8.7-1.5.9-2.2.5-.6-.4-.9-1.2-.3-2.2 5.8-11.4 15.1-29.8 17.3-34.4.3-.5.2-1.2-.2-1.6-.6-.6-1.6-.5-2.1.2l-23.8 33.7c-.5.7-1.4 1-2.2.7-.9-.3-1.3-1.3-1.1-2.2.8-3 19.5-53.5 22.6-61.1.3-.8 0-1.8-.7-2.2-.9-.5-1.9-.1-2.3.7l-27.3 55.5c-.2.5-.7.8-1.3.7-.7-.1-1.1-.8-.9-1.4l5.9-25.3c.1-.6-.1-1.2-.6-1.4-.7-.3-1.4 0-1.7.7l-9.3 25.7c-.2.5-.6.8-1.2.8h-.1c-.7 0-1.1-.6-1.1-1.3 0 0 1.9-17 2.5-22.6 0-.5 0-1.1-.7-1.2-.7-.2-1.1.3-1.2.8-2 5.4-6.4 17.6-7.4 21-.1.4-.5.8-.9.8-.6 0-1-.5-1-1l3.4-55.5c0-.5-.3-1.1-.8-1.2-.7-.2-1.3.2-1.5.8-7.4 28.5-11.3 52-11.9 55.8 0 .3-.3.5-.6.5h-.5c-.3 0-.6-.3-.6-.6l-1.7-29.7c0-.6-.5-1-1-1h-.3c-.6 0-1.1.4-1.2 1L157.8 57c0 .8-.7 1.4-1.5 1.5-.8 0-1.4-.5-1.6-1.2L148.9 28c-.1-.4-.4-.8-.8-.9-.7-.2-1.4.3-1.4 1.1l.1 29.8c0 .3-.2.6-.5.6l-.5.1c-.3.1-.6-.1-.7-.4L127.3 4.2c-.2-.6-.9-1-1.5-.8l-.2.1c-.6.2-1 .8-.9 1.5l12.7 53.9c.2.9.3 2.1-.7 2.5-1.2.4-1.9-.2-2.4-1.1-10.7-17.6-29.3-49.8-32.9-56.5-.3-.6-1.2-.8-1.8-.4l-.2.2c-.5.3-.7 1-.5 1.5 9.7 24.1 24.9 58.3 27.1 63.4.2.4.1.8-.2 1.1-.4.4-1 .3-1.4-.1 0 0-17.3-21.8-23.1-28.9-.2-.3-1-.4-1.5-.1-.4.3-.7.9-.4 1.4 2.9 6.8 12.6 26.4 12.6 26.4.5.9.3 1.6-.2 2-.4.3-1 .2-1.5-.2C99 60.5 68.1 30.4 62.1 24c-.6-.6-1.6-.6-2.2-.1-.5.5-.6 1.4-.2 2.1 20.1 29.1 39.6 49.2 42.9 54.3.3.5.4 1.2 0 1.7-.5.6-1.3.8-2 .5l-60-32.3c-.5-.3-1.1-.2-1.5.2-.5.5-.4 1.3.1 1.7l50.9 42.4c.4.3.6.8.4 1.3-.2.6-.9.9-1.5.7L75.5 92c-.4-.1-.8 0-1.1.2-.4.4-.4 1.1.1 1.5L87 104.1c.5.4.7 1.2.4 1.8-.3.6-1 .9-1.6.7L40.4 95.5c-.6-.1-1.1.1-1.4.7v.2c-.3.6 0 1.3.5 1.5L78.8 118c.3.1.4.5.3.8l-.1.2c-.1.3-.4.5-.7.4l-61.9-8.6c-.7-.1-1.5.3-1.7 1-.3.8.2 1.7 1 1.9l64.9 18c.3.1.4.3.5.6l.1 1.2c0 .4-.3.7-.6.7l-42.9.8c-.6 0-1.2.5-1.3 1.1-.1.7.4 1.4 1.1 1.4l38.5 4.4c.4.1.9.3 1 .7.3.8-.2 1.6-.9 1.7-2.3.4-8.4 1.3-22.8 2.9-17.9 2-46.3 3.8-52.1 4.1-.6 0-1.1.5-1.1 1.1v.4c-.1.7.5 1.3 1.2 1.3l76.9.8c.5 0 1 .3 1.1.7.2.6-.1 1.3-.6 1.5L30 176.2c-.6.2-.9 1-.6 1.6l.1.2c.2.5.8.8 1.3.7 3.4-.8 52.6-9.8 57.2-10.2.9-.1 1.7.4 1.9 1.3.2.7-.1 1.5-.7 1.9-5.3 4.3-45.8 36.8-52.2 41.9-.5.4-.6 1.1-.2 1.6l.4.5c.3.5.9.6 1.5.4L96 191.7c1.1-.5 2-.7 2.9.1 1.2 1.1.8 2.2-.3 3.4-2.5 2.8-41.7 45.2-44.9 49-.6.7-.4 1.6.2 2.2.6.5 1.4.4 2-.1 3.5-3.1 45.6-39.5 47.7-41.3.2-.2.6-.2.8 0l.6.6c.2.2.3.5.1.8L93.2 226c-.2.4-.1.9.3 1.1.5.3 1.3.1 1.7-.3l19.9-18.8c.2-.2.5-.2.8-.1l.5.4c.3.2.4.5.2.8L95.1 259c-.4.9.1 1.9 1.1 2.2.7.2 1.4-.2 1.8-.9 2-3.9 8.3-15.8 12.8-23.2 4.9-8 13.5-19.7 15.3-22.2.2-.3.5-.3.8-.2l.3.2c.3.2.4.5.3.7l-9.9 28.9c-.2.5 0 1.1.4 1.5.6.4 1.4.2 1.7-.4l16.1-28.5c.2-.3.5-.4.8-.3.3.1.4.4.4.7l-4.2 35.6c0 .4.2.7.6.7h.7c.3 0 .5-.2.6-.4 7.4-18.2 12.8-34.1 13.7-36.6.1-.2.3-.4.5-.4.4 0 .7.2.7.6l2.1 33.7c0 .5.4 1 .9 1.1.7.2 1.3-.3 1.4-.9l5.6-28c.1-.4.4-.7.8-.8.6-.1 1.1.3 1.2.8l4.6 32.6c.1.6.5 1 1.1 1 .6 0 1.1-.4 1.2-.9l6.3-32.8c0-.2.2-.4.4-.4.3-.1.6.1.7.4l9.4 30.3c.1.5.6.8 1.1.8.6 0 1-.5 1-1.1l-.1-30.3c0-.3.2-.5.4-.5l.7-.2c.3-.1.5.1.6.3l15.7 41c.2.5.7.9 1.3.8.7-.1 1.2-.7 1.1-1.4l-6.1-35.6c-.1-.5.2-1.1.7-1.3.5-.2 1.1 0 1.4.5 0 0 11 19.9 14.7 26.6.4.7 1.1 1.3 1.9.9.6-.3.9-1 .6-1.9-2.5-7.3-8.7-22.8-11.5-30.4-.5-1.2.7-1.9 1.4-1.2 1.6 1.5 33.6 32.7 35.6 34.5.5.5 1.3.6 2 .1.8-.6.7-1.4.3-2-6-9.8-24-39-24-39-.1-.2-.1-.5.1-.7l.8-.8c.2-.2.5-.2.7 0l20 16.6c.4.3 1 .4 1.4.1.6-.3.7-1.1.4-1.6-1.5-2.3-16.8-21.7-18.9-24.1-.4-.4-.3-1.1.1-1.5.4-.4 1-.4 1.4-.1l23.1 16.2c.4.3 1 .4 1.5.1.7-.4.8-1.4.2-2L234.6 196c-.4-.4-.5-.9-.3-1.3.3-.6 1-.8 1.5-.5 30.4 15.1 54.5 33.2 57.8 35.8.2.2.6.1.7-.1l1.1-1.3c.2-.2.2-.6 0-.8-16.9-15.6-41-36.1-45.2-39.8-.3-.3-.4-.6-.3-1 .2-.6.7-.8 1.3-.6l12.6 4.7c.7.3 1.5-.3 1.5-1s-.5-1.5-1.1-1.8l-16.1-8.6c-.5-.3-.6-.8-.4-1.3l.1-.2c.2-.4.7-.6 1.1-.4l23 7.7c.5.2 1.1.1 1.4-.3.5-.6.3-1.5-.4-1.9l-25.4-12.8c-.3-.1-.8-.7-.5-1.6.3-.8 1.2-.8 1.4-.8 7.4 1 38.8 6.2 44.1 7.2.4.1.9-.2 1.1-.6 0 0 .1-.2.1-.4.2-.5-.1-1-.5-1.2-12.8-4.4-36.2-11.7-39.9-12.7-.3-.1-.4-.3-.4-.6l.1-1c0-.3.3-.5.5-.5 0 0 46.4-1.8 61.7-2.6 2.6-.2 2.9-3.8.4-4" mask="url(#mask-2_00000093871725355683111210000010831300329564881297_)" fill-rule="evenodd" clip-rule="evenodd" fill="#fff"/></g><path id="Fill-4" class="st1" d="M124.4 170.6h-5.2v-3.3h-3.1v9.2h3.1V173h5.2v3.5h3.1v-9.2h-3.1z"/><path id="Fill-6" class="st1" d="M134.8 172.3l1.2-2.7h.9l1.2 2.7h-3.3zm-.6-5l-4.3 9.2h3.1l.9-2.1h5.1l.9 2.1h3.1l-4.3-9.2h-4.5z"/><path id="Fill-8" class="st1" d="M152.1 171.4h-3.9v-2.1h3.9c.7 0 1.2.5 1.2 1 0 .7-.5 1.1-1.2 1.1m3.7-1c0-1.7-1.7-3.1-3.7-3.1h-6.5v9.2h2.5v-2.9h3l2.6 2.9h3.3l-3-3.4c1.1-.6 1.8-1.6 1.8-2.7"/><path id="Fill-10" class="st1" d="M165 174.4h-2.4v-5h2.4c1.7 0 3 1.1 3 2.5s-1.3 2.5-3 2.5m0-7.1h-4.9v9.2h4.9c3.1 0 5.5-2.1 5.5-4.6 0-2.6-2.4-4.6-5.5-4.6"/><path id="Fill-12" class="st1" d="M186.1 173.2c0 .9-.9 1.7-2 1.7s-2-.8-2-1.7v-1.1h-2.5v1.1c0 2.1 2 3.8 4.6 3.8 2.5 0 4.6-1.7 4.6-3.8v-6h-2.5l-.2 6z"/><path id="Fill-14" class="st1" d="M197.1 174.5c-1.4 0-2.5-1.1-2.5-2.5s1.1-2.5 2.5-2.5 2.5 1.1 2.5 2.5-1.1 2.5-2.5 2.5m0-7.4c-2.9 0-5.2 2.2-5.2 5s2.3 5 5.2 5c2.9 0 5.2-2.2 5.2-5-.1-2.8-2.4-5-5.2-5"/><path id="Fill-16" class="st1" d="M210.1 175h-2.2v-2.3h2.2c.9 0 1.5.5 1.5 1.1 0 .7-.6 1.2-1.5 1.2zm-2.2-5.5h2.2c.5 0 .9.3.9.7 0 .4-.4.7-.9.7h-2.2v-1.4zm4.8 2.4c.6-.5 1-1.1 1-1.9 0-1.5-1.6-2.7-3.6-2.7h-4.7v9.7h4.8c2.2 0 3.8-1.2 4-2.8.1-.9-.5-1.7-1.5-2.3z"/><path id="Fill-18" class="st1" d="M171.9 183.7c-18-1.4-36.2-1.1-54.1.8-.6-1.2-1.3-2.4-2-3.5 18.2-2 36.5-2.4 54.8-1.1.5 1.2.9 2.5 1.3 3.8"/><path id="Fill-20" class="st1" d="M130.1 107.4l-4.3 24.5-1.3-16.1c-.1-1.1-1.2-1.8-2.3-1.5l-2.7.6c-.8.2-1.4.8-1.5 1.6l-4.1 21.5-.4-17.2c0-1.1-1.1-1.8-2.3-1.6-.6.1-1.9.4-2.5.6-.9.3-1.6 1.1-1.6 2l1.6 33.1c.1 1.5 1.4 2.1 3 1.7 1.7-.4 2.6-1.1 2.8-2l5.3-23.7 1.2 20.5c.1 1.4 1.5 2.1 3 1.8.5-.1 1.4-.3 1.9-.5 1-.3 1.7-1.1 1.9-2l8.4-43.7c.3-1.3-1-2.3-2.3-2l-2.5.7c-.6.3-1.2.9-1.3 1.7"/><path id="Fill-22" class="st1" d="M137.5 145.6c-2 .2-1.9-2.6-1-5.4.8-2.8 2.8-4.9 4.3-4.5 1.9.6.1 9.6-3.3 9.9m7-15.9c-3.1-.4-9.7 1.7-12.1 9.5-2.7 8.8 1.1 12.6 5 11.9 2.3-.4 3.4-2.5 3.4-2.5l.3.9c.2.6 1 .9 1.7.5l2.9-1.6c.5-.3.8-.9.7-1.4-1.4-4-.2-10.3.2-14.7 0-1.7-1.5-2.5-2.1-2.6"/><path id="Fill-24" class="st1" d="M163.8 124.7c-1.6-.7-4.8.6-6.9 2.6l.2-1.1c.2-.8-.6-1.4-1.5-1.2l-2.7.8c-.5.1-.9.5-1 1l-3.8 19.6c-.2.8.6 1.4 1.5 1.2l2.7-.8c.5-.1.9-.5 1-1l2.3-11.5c2.1-2.1 3.8-2.2 3.4.3-.3 2-1.4 7.2-1.7 9.3-.1.8.6 1.4 1.5 1.1l3.1-.9c.5-.1.9-.5 1-1 .7-3.6 1.9-9.3 2.6-12.8.5-3.6-.1-4.9-1.7-5.6"/><path id="Fill-26" class="st1" d="M179.1 112.5l-1.3.4.9-4.8c.3-1.4-1-2.4-2.4-2l-1.8.5c-.8.2-1.4.9-1.6 1.7l-1.2 6.4-3.6 1c-.8.2-1.4.8-1.7 1.5l-.8 2.8c-.4 1.4.9 2.5 2.5 2.1l2.3-.6-3.4 18.3c-.3 1.4 1 2.4 2.4 2l1.8-.5c.8-.2 1.4-.9 1.6-1.7l3.7-19.9 2.7-.7c.8-.2 1.4-.8 1.7-1.5l.8-2.8c.3-1.5-1-2.6-2.6-2.2"/><path id="Fill-28" class="st1" d="M185.3 122.8c2.2-1.6 3.7-.3 3 1.6-.6 1.7-2.7 2.7-5.7 3.5 0-1.2 1.2-4 2.7-5.1m6-4.4c-2.6-2-10.1-.9-13.1 7.7-2.4 6.9.4 12.1 5.3 12.4 3.4.2 6.4-1.5 7.9-2.6.6-.4.8-1.1.5-1.7l-.6-1.4c-.3-.6-1.1-.8-1.8-.5-2.1.9-6 3.3-6.6-.6 11.5-2 12.6-9.9 8.4-13.3"/><path id="Fill-30" class="st1" d="M205.9 121.5c-.3 3.1-1.8 5.7-3.8 5.7-1.9 0-2.4-2.8-2.1-5 .3-2.5 1.9-4.9 3.6-5.1 1.9-.2 2.5 2 2.3 4.4m6.1-22.8l-1.3.3c-.8.3-1.4.9-1.5 1.7l-1.3 10.6c-.5-.3-1.2-.4-1.8-.4-5.8.2-9 4.8-10.3 10.8s.4 12.4 5.5 11.4c2.9-.6 4.6-2.1 5.5-3.6.1.4.3.8.4 1.1.3.7 1.2.9 1.9.5l2.7-1.6c.5-.3.8-.9.7-1.4-.7-3.8-1.4-9.3.1-17.4 1.3-7.4 1.9-10.2 1.9-10.2.2-1.4-1.1-2.3-2.5-1.8"/><path id="Fill-32" class="st1" d="M173.1 159c-1.7-.1-1.4-2.5-.5-4.8.9-2.3 2.7-3.8 4-3.2 1.6.8-.5 8.2-3.5 8m6.9-12.6c-2.6-.8-8.4.1-10.9 6.3-2.9 7.1.1 10.9 3.5 10.8 2 0 3.1-1.6 3.1-1.6l.2.8c.2.6.8.9 1.4.7l2.5-.9c.5-.2.8-.6.7-1.1-.9-3.6.5-8.8 1.1-12.5.2-1.4-1-2.3-1.6-2.5"/></g></g></g></svg>